<?xml version="1.0" encoding="utf-8"?>
<!-- Generator: Adobe Illustrator 16.0.0, SVG Export Plug-In . SVG Version: 6.00 Build 0)  -->
<!DOCTYPE svg PUBLIC "-//W3C//DTD SVG 1.1//EN" "http://www.w3.org/Graphics/SVG/1.1/DTD/svg11.dtd">
<svg version="1.1" id="Layer_1" xmlns="http://www.w3.org/2000/svg" xmlns:xlink="http://www.w3.org/1999/xlink" x="0px" y="0px"
	  viewBox="0 0 13.584 19.829" enable-background="new 0 0 13.584 19.829" xml:space="preserve">
<g>
	<path fill="#ffffff" d="M0,10.391h1.989V0.419c0.709-0.167,1.47-0.279,2.282-0.335C5.084,0.028,5.891,0,6.694,0
		c0.858,0,1.703,0.084,2.534,0.252c0.831,0.168,1.568,0.477,2.213,0.924c0.645,0.448,1.162,1.055,1.555,1.821
		c0.392,0.766,0.588,1.746,0.588,2.94c0,1.176-0.201,2.157-0.603,2.941s-0.934,1.419-1.596,1.904
		c-0.663,0.486-1.42,0.831-2.269,1.036c-0.851,0.206-1.714,0.318-2.591,0.336l-2.213,0.028v1.989h4.649v1.736H4.313v3.921H1.989
		v-3.921H0v-1.736h1.989v-2.017H0V10.391z M6.75,1.96c-0.485,0-0.947,0.014-1.387,0.042c-0.438,0.028-0.788,0.07-1.05,0.126v8.094
		h2.129c0.56,0,1.12-0.056,1.68-0.167C8.683,9.944,9.187,9.73,9.635,9.414s0.813-0.749,1.093-1.298
		c0.279-0.549,0.41-1.27,0.392-2.164c0.019-0.763-0.089-1.4-0.322-1.912c-0.233-0.512-0.551-0.921-0.952-1.228
		s-0.868-0.525-1.4-0.656S7.348,1.96,6.75,1.96z"/>
</g>
</svg>
